<?xml version="1.0" encoding="UTF-8" standalone="no"?>
<!DOCTYPE svg PUBLIC "-//W3C//DTD SVG 1.1//EN" "http://www.w3.org/Graphics/SVG/1.1/DTD/svg11.dtd">
<svg width="100%" height="100%" viewBox="0 0 229 224" version="1.1" xmlns="http://www.w3.org/2000/svg" xmlns:xlink="http://www.w3.org/1999/xlink" xml:space="preserve" xmlns:serif="http://www.serif.com/" style="fill-rule:evenodd;clip-rule:evenodd;stroke-linejoin:round;stroke-miterlimit:2;">
    <g transform="matrix(0.231036,0,0,0.231036,114.5,111.555)">
        <g transform="matrix(1,0,0,1,-494,-475)">
            <g transform="matrix(2.13769,0,0,2.13769,-574.685,-488.936)">
                <g transform="matrix(1,0,0,1,302.924,379.923)">
                    <path d="M17,126C4,113 4,113 4,59C4,13 4,5 5,3C7,2 13,2 43,2L80,2L80,4L86,4L86,2L142,2L142,4L148,4L148,2L212,2L212,4L218,4L218,2L282,2L282,4L284,4C285,4 286,5 287,6L289,8L291,6C292,5 293,4 294,4L296,4L296,2L352,2L352,4L354,4C355,4 384,33 384,34L384,36L386,36L386,126L384,126L384,128C384,130 376,138 374,138L372,138L372,140L322,140L322,138L320,138C320,138 317,136 315,134C313,132 311,130 310,130C309,130 307,132 305,134C303,136 300,138 300,138L298,138L298,140L270,140C243,140 243,140 240,137C237,133 235,133 233,136C232,137 231,138 230,138L228,138L228,140L129,140C31,140 31,140 17,126ZM375,16C373,15 372,12 372,11C372,8 378,2 381,2C384,2 390,8 390,11C390,14 384,20 381,20C380,20 377,18 375,16Z" style="fill:rgb(5,6,4);fill-rule:nonzero;"/>
                </g>
                <g transform="matrix(1,0,0,1,302.924,379.923)">
                    <path d="M17,126C4,113 4,113 4,59C4,13 4,5 5,3C7,2 13,2 43,2L80,2L80,4L86,4L86,2L142,2L142,4L148,4L148,2L212,2L212,4L218,4L218,2L282,2L282,4L284,4C285,4 286,5 287,6L289,8L291,6C292,5 293,4 294,4L296,4L296,2L352,2L352,4L354,4C355,4 384,33 384,34L384,36L386,36L386,126L384,126L384,128C384,130 376,138 374,138L372,138L372,140L322,140L322,138L320,138C320,138 317,136 315,134C313,132 311,130 310,130C309,130 307,132 305,134C303,136 300,138 300,138L298,138L298,140L270,140C243,140 243,140 240,137C237,133 235,133 233,136C232,137 231,138 230,138L228,138L228,140L129,140C31,140 31,140 17,126ZM228,138L228,136L230,136C231,136 232,135 233,134C235,131 237,131 240,135C243,138 243,138 270,138L298,138L298,136L300,136C300,136 303,134 305,132C307,130 309,128 310,128C311,128 313,130 315,132C317,134 320,136 320,136L322,136L322,138L372,138L372,136L374,136C376,136 382,130 382,128L382,126L384,126L384,36L382,36L382,34C382,33 355,6 354,6L352,6L352,4L296,4L296,6L294,6C293,6 292,7 291,8L289,10L287,8C286,7 285,6 284,6L282,6L282,4L218,4L218,8L216,8L216,6L212,6L212,4L148,4L148,8L146,8L146,6L142,6L142,4L86,4L86,6L82,6L82,8L80,8L80,4L6,4L6,59C6,113 6,113 18,125C31,138 31,138 129,138L228,138ZM375,16C373,15 372,12 372,11C372,8 378,2 381,2C384,2 390,8 390,11C390,14 384,20 381,20C380,20 377,18 375,16ZM24,124L15,115L15,114C16,113 21,113 30,113C44,113 44,113 52,122L61,131L61,132C60,133 55,133 46,133C32,133 32,133 24,124ZM60,124L51,115L51,114C52,113 57,113 65,113C78,113 78,113 86,122L95,131L95,132C94,133 89,133 81,133C68,133 68,133 60,124ZM94,124L85,115L85,114C86,113 91,113 100,113C114,113 114,113 122,122L131,131L131,132C130,133 125,133 116,133C102,133 102,133 94,124ZM130,124L121,115L121,114C122,113 127,113 135,113C148,113 148,113 156,122L165,131L165,132C164,133 159,133 151,133C138,133 138,133 130,124ZM164,124L155,115L155,114C156,113 164,113 182,113C209,113 210,113 215,109L217,107L218,107C219,108 219,109 219,110C219,112 222,115 226,120L233,127L232,128C229,133 226,133 199,133C172,133 172,133 164,124ZM236,124L227,115L227,114C228,113 236,113 253,113C271,113 279,113 280,112C284,110 286,108 287,105L288,103L290,103L291,105C291,106 295,110 298,114C302,118 305,121 305,122C305,125 301,129 298,131C296,133 292,133 270,133C244,133 244,133 236,124ZM322,131C321,131 316,127 312,123L305,115L305,114C306,113 313,113 328,113C350,113 352,113 356,109C361,105 361,104 361,63C361,36 361,24 362,23L363,23L371,31C379,38 379,38 379,81C379,119 379,124 377,126C374,132 372,133 347,133C330,133 324,132 322,131ZM11,108L11,58L12,10L43,10L43,45L47,45L47,27L48,10L77,10L77,109L48,109L47,91L47,73L43,73L43,109L12,109L11,108ZM82,108C81,108 81,88 81,63C81,23 81,18 83,16C86,9 88,9 114,9C140,9 142,9 145,16C147,19 147,22 147,64L147,109L118,109L117,95L117,81L113,81L113,109L97,109C89,109 82,109 82,108ZM117,59L117,33L114,33L113,46L113,59L117,59ZM151,108L151,58L152,10L179,9C204,9 207,9 210,11C216,14 217,17 217,35C217,53 216,56 211,58L207,59L207,61L211,62C216,64 217,67 217,84C217,101 216,104 210,107C208,109 204,109 180,109L152,109L151,108ZM186,90C186,89 187,86 187,82C187,76 186,73 184,73L183,73L183,91L184,91C184,91 185,90 186,90ZM186,48C186,47 187,44 187,40C187,34 186,31 184,31L183,31L183,49L184,49C184,49 185,48 186,48ZM221,108L221,58L222,10L249,9C274,9 277,9 280,11C286,14 287,17 287,35C287,53 286,56 281,58L277,59L277,61L281,62C286,64 287,67 287,84C287,101 286,104 280,107C278,109 274,109 250,109L222,109L221,108ZM256,90C256,89 257,86 257,82C257,76 256,73 254,73L253,73L253,91L254,91C254,91 255,90 256,90ZM256,48C256,47 257,44 257,40C257,34 256,31 254,31L253,31L253,49L254,49C254,49 255,48 256,48ZM298,107C291,103 291,104 291,59C291,22 291,18 293,16C296,9 298,9 324,9C350,9 352,9 355,16C357,18 357,22 357,59C357,96 357,100 355,102C352,109 350,109 324,109C304,109 300,109 298,107ZM327,89L327,33L324,33L323,60L323,89L324,90L325,90L327,89Z" style="fill:rgb(80,54,0);fill-rule:nonzero;"/>
                </g>
                <g transform="matrix(1,0,0,1,302.924,379.923)">
                    <path d="M17,126C4,113 4,113 4,59C4,13 4,5 5,3C7,2 13,2 43,2L80,2L80,4L86,4L86,2L142,2L142,4L148,4L148,2L212,2L212,4L218,4L218,2L282,2L282,4L284,4C285,4 286,5 287,6L289,8L291,6C292,5 293,4 294,4L296,4L296,2L352,2L352,4L354,4C355,4 384,33 384,34L384,36L386,36L386,126L384,126L384,128C384,130 376,138 374,138L372,138L372,140L322,140L322,138L320,138C320,138 317,136 315,134C313,132 311,130 310,130C309,130 307,132 305,134C303,136 300,138 300,138L298,138L298,140L270,140C243,140 243,140 240,137C237,133 235,133 233,136C232,137 231,138 230,138L228,138L228,140L129,140C31,140 31,140 17,126ZM228,138L228,136L230,136C231,136 232,135 233,134C235,131 237,131 240,135C243,138 243,138 270,138L298,138L298,136L300,136C300,136 303,134 305,132C307,130 309,128 310,128C311,128 313,130 315,132C317,134 320,136 320,136L322,136L322,138L372,138L372,136L374,136C376,136 382,130 382,128L382,126L384,126L384,36L382,36L382,34C382,33 355,6 354,6L352,6L352,4L296,4L296,6L294,6C293,6 292,7 291,8L289,10L287,8C286,7 285,6 284,6L282,6L282,4L218,4L218,8L216,8L216,6L212,6L212,4L148,4L148,8L146,8L146,6L142,6L142,4L86,4L86,6L82,6L82,8L80,8L80,4L6,4L6,59C6,113 6,113 18,125C31,138 31,138 129,138L228,138ZM375,16C373,15 372,12 372,11C372,8 378,2 381,2C384,2 390,8 390,11C390,14 384,20 381,20C380,20 377,18 375,16ZM25,124C21,119 17,115 17,115L17,114L30,114C43,114 43,114 51,122C55,127 59,131 59,131L59,132L46,132C33,132 33,132 25,124ZM61,124C57,119 53,115 53,115L53,114L65,114C77,114 77,114 85,122C89,127 93,131 93,131L93,132L81,132C69,132 69,132 61,124ZM95,124C91,119 87,115 87,115L87,114L100,114C113,114 113,114 121,122C125,127 129,131 129,131L129,132L116,132C103,132 103,132 95,124ZM131,124C127,119 123,115 123,115L123,114L135,114C147,114 147,114 155,122C159,127 163,131 163,131L163,132L151,132C139,132 139,132 131,124ZM165,124C161,119 157,115 157,115L157,114L183,114C204,114 209,114 212,112C214,112 215,110 216,110C216,109 217,109 217,109L218,109L218,111C218,113 220,116 225,120L231,127L231,128C230,128 229,130 227,130C224,132 219,132 199,132C173,132 173,132 165,124ZM237,124C233,119 229,115 229,115L229,114L254,114C281,114 283,114 287,108L289,106C289,106 293,110 297,114L304,122L302,125C299,132 297,132 270,132C245,132 245,132 237,124ZM323,130C320,129 307,116 307,115L307,114L329,114C351,114 353,114 357,110C362,106 362,105 362,64L362,25L363,25C363,25 367,28 371,32C378,39 378,39 378,81C378,118 378,123 376,125C373,131 371,132 347,132C331,132 325,131 323,130ZM12,107L12,58L13,11L42,11L42,28L43,46L48,46L48,28L49,11L76,11L76,108L49,108L48,90L48,72L42,72L42,108L13,108L12,107ZM83,107C82,107 82,87 82,63C82,14 82,15 89,11C92,9 136,9 139,11C146,15 146,14 146,64L146,108L119,108L118,94L118,80L112,80L112,108L97,108C90,108 83,108 83,107ZM118,46C118,36 118,33 117,32L115,31L114,32C112,33 112,36 112,46C112,53 112,59 113,59C113,60 114,60 115,60L118,60L118,46ZM152,107L152,58L153,11L180,10C217,10 216,9 216,35C216,51 215,56 212,56L210,56L210,58L208,58L206,59L206,62L210,63C215,65 216,68 216,84C216,100 215,103 209,106C207,108 203,108 180,108L153,108L152,107ZM187,91C188,90 188,87 188,82C188,74 187,72 184,72L182,72L182,92L184,92C185,92 186,91 187,91ZM186,48C189,46 189,34 186,32L184,30L183,30C182,31 182,35 182,40C182,50 183,52 186,48ZM222,107L222,58L223,11L250,10C287,10 286,9 286,35C286,51 285,56 282,56L280,56L280,58L278,58L276,59L276,62L280,63C285,65 286,68 286,84C286,100 285,103 279,106C277,108 273,108 250,108L223,108L222,107ZM257,91C258,90 258,87 258,82C258,74 257,72 254,72L252,72L252,92L254,92C255,92 256,91 257,91ZM256,48C259,46 259,34 256,32L254,30L253,30C252,31 252,35 252,40C252,50 253,52 256,48ZM299,106C292,102 292,103 292,59C292,19 292,17 296,14C299,10 301,10 324,10C347,10 349,10 352,14C356,17 356,19 356,59C356,95 356,99 354,101C351,107 349,108 324,108C304,108 301,108 299,106ZM326,90L328,90L328,62C328,38 328,33 327,32L325,31L324,32C322,33 322,38 322,62L322,90L323,90C324,91 325,91 325,91C325,91 326,91 326,90Z" style="fill:rgb(244,90,0);fill-rule:nonzero;"/>
                </g>
                <g transform="matrix(1,0,0,1,302.924,379.923)">
                    <path d="M17,126C4,113 4,113 4,59C4,13 4,5 5,3C7,2 13,2 43,2L80,2L80,4L86,4L86,2L142,2L142,4L148,4L148,2L212,2L212,4L218,4L218,2L282,2L282,4L284,4C285,4 286,5 287,6L289,8L291,6C292,5 293,4 294,4L296,4L296,2L352,2L352,4L354,4C355,4 384,33 384,34L384,36L386,36L386,126L384,126L384,128C384,130 376,138 374,138L372,138L372,140L322,140L322,138L320,138C320,138 317,136 315,134C313,132 311,130 310,130C309,130 307,132 305,134C303,136 300,138 300,138L298,138L298,140L270,140C243,140 243,140 240,137C237,133 235,133 233,136C232,137 231,138 230,138L228,138L228,140L129,140C31,140 31,140 17,126ZM228,138L228,136L230,136C231,136 232,135 233,134C235,131 237,131 240,135C243,138 243,138 270,138L298,138L298,136L300,136C300,136 303,134 305,132C307,130 309,128 310,128C311,128 313,130 315,132C317,134 320,136 320,136L322,136L322,138L372,138L372,136L374,136C376,136 382,130 382,128L382,126L384,126L384,36L382,36L382,34C382,33 355,6 354,6L352,6L352,4L296,4L296,6L294,6C293,6 292,7 291,8L289,10L287,8C286,7 285,6 284,6L282,6L282,4L218,4L218,8L216,8L216,6L212,6L212,4L148,4L148,8L146,8L146,6L142,6L142,4L86,4L86,6L82,6L82,8L80,8L80,4L6,4L6,59C6,113 6,113 18,125C31,138 31,138 129,138L228,138ZM375,16C373,15 372,12 372,11C372,8 378,2 381,2C384,2 390,8 390,11C390,14 384,20 381,20C380,20 377,18 375,16ZM12,107L12,58L13,11L42,11L42,28L43,46L48,46L48,28L49,11L76,11L76,108L49,108L48,90L48,72L42,72L42,108L13,108L12,107ZM83,107C82,107 82,87 82,63C82,14 82,15 89,11C92,9 136,9 139,11C146,15 146,14 146,64L146,108L119,108L118,94L118,80L112,80L112,108L97,108C90,108 83,108 83,107ZM118,46C118,36 118,33 117,32L115,31L114,32C112,33 112,36 112,46C112,53 112,59 113,59C113,60 114,60 115,60L118,60L118,46ZM152,107L152,58L153,11L180,10C217,10 216,9 216,35C216,51 215,56 212,56L210,56L210,58L208,58L206,59L206,62L209,62L209,64L211,64L214,65L214,69L216,69L216,99L214,99L214,101C214,102 210,106 209,106L207,106L207,108L153,108L152,107ZM188,92L188,73L185,72L182,72L182,92L188,92ZM186,48C189,46 189,34 186,32L184,30L183,30C182,31 182,35 182,40C182,50 183,52 186,48ZM222,107L222,58L223,11L250,10C287,10 286,9 286,35C286,51 285,56 282,56L280,56L280,58L278,58L276,59L276,62L279,62L279,64L281,64L284,65L284,69L286,69L286,99L284,99L284,101C284,102 280,106 279,106L277,106L277,108L223,108L222,107ZM258,92L258,73L255,72L252,72L252,92L258,92ZM256,48C259,46 259,34 256,32L254,30L253,30C252,31 252,35 252,40C252,50 253,52 256,48ZM301,108L301,106L300,106C299,106 297,105 296,104C295,103 294,101 294,101L294,99L292,99L292,59C292,19 292,17 296,14C299,10 301,10 324,10C347,10 349,10 352,14C356,17 356,19 356,59L356,99L354,99L354,101C354,102 350,106 349,106L347,106L347,108L301,108ZM328,62C328,37 328,33 327,32L325,31L324,32C322,33 322,38 322,62L322,91C323,91 324,92 325,92L328,91L328,62Z" style="fill:rgb(142,137,69);fill-rule:nonzero;"/>
                </g>
                <g transform="matrix(1,0,0,1,302.924,379.923)">
                    <path d="M13,107L13,11L41,11L41,28C41,43 42,45 43,46C45,47 45,47 47,46C48,45 49,43 49,28L49,11L75,11L75,107L49,107L49,90C49,75 48,73 47,72C45,71 45,71 43,72C42,73 41,75 41,90L41,107L13,107ZM83,63C83,15 83,15 89,12C92,10 136,10 139,12C145,15 145,15 145,63L145,107L119,107L119,94C119,83 118,81 117,80C115,79 115,79 113,80C112,81 111,83 111,94L111,107L83,107L83,63ZM118,60C119,59 119,54 119,46C119,35 119,33 117,32L115,30L113,32C111,33 111,35 111,46C111,59 112,61 115,61C116,61 117,60 118,60ZM153,107L153,11L180,11C209,11 211,11 214,17C215,20 216,51 214,53C213,54 211,56 209,57C205,59 205,61 209,63C211,65 213,66 214,68C216,72 215,98 213,101C211,107 209,107 180,107L153,107ZM187,91C189,89 189,88 189,83C189,75 188,73 186,72L184,71L182,72C181,73 181,76 181,82C181,93 183,95 187,91ZM187,49C189,47 189,46 189,40C189,34 189,33 187,31L184,29L183,30C181,32 180,48 182,50C184,51 184,51 187,49ZM223,107L223,11L250,11C279,11 281,11 284,17C285,20 286,51 284,53C283,54 281,56 279,57C275,59 275,61 279,63C281,65 283,66 284,68C286,72 285,98 283,101C281,107 279,107 250,107L223,107ZM257,91C259,89 259,88 259,83C259,75 258,73 256,72L254,71L252,72C251,73 251,76 251,82C251,93 253,95 257,91ZM257,49C259,47 259,46 259,40C259,34 259,33 257,31L254,29L253,30C251,32 250,48 252,50C254,51 254,51 257,49ZM299,105C293,102 293,102 293,59C293,16 293,15 299,12C302,10 346,10 349,12C355,15 355,16 355,59C355,102 355,102 349,105C345,108 303,108 299,105ZM328,90C329,89 329,78 329,61C329,35 329,33 327,32L325,30L323,32C321,33 321,35 321,61C321,78 321,89 322,90C323,91 324,92 325,92C326,92 327,91 328,90ZM379,18L380,17L377,17L378,16L378,14L384,14L384,16L385,17L383,17L383,19L379,19L379,18ZM375,14L376,13L373,13L373,9L374,9L376,10L375,8L375,7L379,9L377,5L378,5L380,6L379,4L379,3L383,3L383,6L384,5L385,5L384,7C383,8 383,10 384,11L384,12L383,12L381,11L382,13L382,14L381,14C380,13 378,13 377,14L375,15L375,14ZM385,14C385,14 384,12 384,11L384,8L386,8L387,7L387,10L388,9L389,9L389,13L387,13L387,15C387,15 386,15 385,14Z" style="fill:rgb(254,216,0);fill-rule:nonzero;"/>
                </g>
                <g transform="matrix(1,0,0,1,302.924,379.923)">
                    <path d="M379,18L380,17L377,17L378,16L378,14L384,14L384,16L385,17L383,17L383,19L379,19L379,18ZM375,14L376,13L373,13L373,9L374,9L376,10L375,8L375,7L379,9L377,5L378,5L380,6L379,4L379,3L383,3L383,6L384,5L385,5L384,7C383,8 382,10 381,11L380,13L381,13L382,12L382,14L380,14C380,13 378,13 377,14L375,15L375,14ZM385,14C385,14 384,12 384,11L384,8L386,8L387,7L387,10L388,9L389,9L389,13L387,13L387,15C387,15 386,15 385,14ZM382,12L384,10L384,12L382,12Z" style="fill:white;fill-rule:nonzero;"/>
                </g>
            </g>
        </g>
    </g>
</svg>
